<?xml version="1.0" standalone="no"?>
<!DOCTYPE svg PUBLIC "-//W3C//DTD SVG 20010904//EN"
 "http://www.w3.org/TR/2001/REC-SVG-20010904/DTD/svg10.dtd">
<svg version="1.0" xmlns="http://www.w3.org/2000/svg"
 width="1080.000000pt" height="1080.000000pt" viewBox="0 0 1080.000000 1080.000000"
 preserveAspectRatio="xMidYMid meet">
<metadata>
Created by potrace 1.11, written by Peter Selinger 2001-2013
</metadata>
<g transform="translate(0.000000,1080.000000) scale(0.100000,-0.100000)"
fill="#000000" stroke="none">
<path d="M5270 9451 c0 -5 -24 -9 -52 -9 -29 0 -60 -2 -68 -5 -8 -3 -37 -8
-65 -11 -76 -9 -116 -16 -160 -28 -58 -16 -68 -18 -92 -21 -13 -1 -23 -5 -23
-9 0 -5 -8 -8 -17 -8 -10 0 -48 -11 -85 -24 -41 -13 -68 -18 -68 -12 0 6 -5 4
-10 -5 -5 -9 -38 -27 -72 -40 -35 -13 -98 -40 -141 -61 -43 -21 -81 -38 -85
-38 -4 0 -18 -9 -32 -20 -14 -11 -33 -20 -42 -20 -10 0 -18 -4 -18 -10 0 -5
-4 -10 -10 -10 -5 0 -35 -16 -65 -35 -31 -20 -61 -33 -67 -29 -7 4 -8 3 -4 -5
4 -6 0 -14 -11 -18 -10 -4 -20 -9 -23 -12 -13 -15 -68 -40 -74 -33 -4 4 -6 2
-4 -5 3 -12 -118 -96 -139 -96 -7 0 -11 -4 -10 -7 1 -4 -61 -56 -138 -114
-151 -115 -189 -144 -221 -173 -12 -10 -36 -29 -54 -43 -19 -14 -95 -76 -169
-138 -75 -62 -154 -127 -175 -145 -22 -18 -45 -38 -52 -44 -7 -7 -15 -13 -19
-13 -3 0 -16 -10 -28 -23 -24 -25 -127 -110 -171 -142 -24 -17 -115 -89 -179
-141 -9 -8 -22 -14 -27 -14 -6 0 -10 -3 -10 -7 -1 -11 -81 -68 -91 -65 -5 1
-9 -2 -9 -7 0 -11 -126 -101 -140 -101 -6 0 -10 -4 -10 -10 0 -5 -6 -10 -14
-10 -7 0 -19 -7 -26 -15 -7 -9 -19 -14 -26 -11 -8 3 -13 1 -11 -5 1 -6 -16
-21 -38 -34 -106 -63 -128 -74 -136 -69 -5 3 -8 0 -7 -6 4 -14 -288 -166 -336
-174 -6 -1 -26 -10 -43 -19 -18 -10 -33 -15 -33 -11 0 4 -6 2 -13 -4 -10 -8
-97 -37 -141 -47 -6 -1 -18 -5 -26 -8 -59 -22 -145 -41 -197 -42 -17 0 -29 -3
-27 -6 7 -12 -124 -27 -279 -33 -43 -2 -80 -6 -83 -8 -5 -6 127 -401 222 -658
7 -19 42 -114 79 -210 36 -96 67 -179 69 -185 2 -5 10 -26 19 -45 8 -19 13
-38 11 -42 -3 -5 -1 -8 4 -8 8 0 29 -50 43 -100 2 -8 6 -17 9 -20 3 -3 19 -39
34 -80 16 -41 33 -80 37 -86 5 -6 3 -16 -4 -23 -9 -10 -8 -11 6 -6 11 5 17 2
17 -6 0 -8 18 -56 40 -107 22 -51 41 -99 43 -105 1 -7 4 -14 7 -17 15 -14 99
-223 94 -232 -4 -6 -2 -8 3 -5 10 6 40 -50 36 -65 -1 -3 4 -12 12 -18 8 -7 15
-17 15 -22 0 -5 12 -35 26 -66 55 -120 106 -228 115 -242 5 -8 14 -26 19 -40
6 -14 26 -56 46 -93 19 -37 32 -73 28 -79 -4 -6 -3 -8 3 -5 13 8 26 -20 16
-35 -3 -7 -1 -8 6 -4 7 5 16 -4 23 -26 7 -18 11 -36 10 -40 -1 -5 2 -8 7 -8 5
0 24 -30 42 -67 18 -38 46 -90 61 -116 16 -27 26 -53 23 -58 -4 -5 -1 -9 5 -9
6 0 14 -8 17 -17 4 -10 31 -60 60 -112 29 -51 53 -95 53 -97 0 -3 11 -23 26
-45 49 -78 64 -110 58 -121 -4 -6 -3 -8 3 -5 5 3 30 -28 54 -70 24 -41 51 -87
59 -102 9 -14 33 -53 55 -86 21 -32 38 -65 38 -72 0 -7 4 -10 8 -8 4 3 9 -1
12 -9 3 -7 25 -44 49 -82 25 -38 45 -73 45 -78 1 -5 5 -12 10 -15 6 -3 34 -42
64 -86 29 -44 57 -84 61 -90 5 -5 30 -41 58 -80 27 -38 57 -79 65 -90 9 -11
24 -32 33 -47 9 -16 20 -28 24 -28 4 0 8 -5 8 -10 0 -6 12 -24 28 -41 15 -16
34 -43 43 -59 9 -16 19 -27 23 -23 3 3 6 2 6 -3 0 -5 10 -21 23 -36 12 -14 30
-37 41 -50 10 -12 41 -49 67 -80 27 -31 49 -60 49 -63 0 -4 11 -16 25 -27 14
-11 22 -25 18 -31 -3 -7 -3 -9 2 -5 6 6 35 -14 35 -24 0 -3 67 -73 150 -158
82 -84 150 -157 150 -162 0 -5 4 -7 9 -4 5 4 11 3 13 -2 1 -4 44 -43 93 -87
50 -43 92 -81 95 -84 3 -4 32 -26 65 -51 33 -25 66 -51 73 -57 7 -7 18 -13 23
-13 5 0 9 -7 9 -16 0 -8 4 -13 9 -10 11 7 107 -62 104 -74 -2 -5 3 -7 11 -4 7
3 19 -2 26 -11 7 -8 17 -15 22 -15 18 0 78 -47 70 -55 -4 -5 -2 -6 3 -2 13 7
77 -22 71 -32 -3 -4 5 -8 16 -8 12 -1 24 -6 27 -10 5 -7 37 -23 128 -66 12 -5
20 -14 17 -18 -3 -5 2 -6 10 -3 8 3 31 -3 53 -14 65 -33 291 -107 388 -127 62
-13 71 -15 110 -21 22 -3 46 -11 54 -18 12 -8 13 -8 7 2 -5 9 1 11 27 7 96
-16 251 -20 347 -10 174 18 183 19 295 46 50 12 98 22 108 22 9 1 17 4 17 7 0
4 23 12 51 19 28 8 63 20 78 27 14 8 33 14 42 14 9 0 19 3 23 7 4 5 11 8 14 9
4 0 30 11 57 24 28 12 56 23 63 23 6 0 12 3 12 7 0 3 28 20 63 36 34 16 65 33
68 38 4 5 12 5 19 1 8 -5 11 -4 7 2 -4 6 1 14 11 18 24 9 223 136 246 157 11
10 32 24 48 30 15 7 28 16 28 19 0 3 21 21 48 39 26 19 50 38 53 43 4 5 12 6
19 2 8 -5 11 -4 7 2 -3 5 4 18 16 28 69 58 146 126 190 167 28 26 55 44 60 41
6 -3 7 -2 4 4 -8 13 57 76 67 66 4 -5 6 -3 4 3 -2 6 45 63 103 125 59 63 139
152 179 199 40 47 82 96 94 110 12 14 40 48 62 75 21 28 45 57 52 65 22 26
167 222 217 295 27 39 52 72 57 73 4 2 8 8 8 13 0 9 37 67 50 79 3 3 26 37 49
75 24 39 48 72 53 73 4 2 8 7 8 12 0 17 63 109 71 104 5 -3 6 1 3 9 -3 8 2 20
11 27 8 7 15 16 15 21 0 19 53 88 63 82 6 -3 7 -1 3 6 -10 15 153 293 167 284
6 -3 7 -1 3 5 -9 15 12 54 24 47 6 -3 7 0 4 8 -3 8 4 30 15 48 19 32 155 282
213 393 15 28 27 57 28 64 0 6 5 12 10 12 6 0 10 9 10 20 0 11 5 20 10 20 6 0
10 4 10 9 0 5 47 105 104 223 57 117 120 247 139 288 47 101 90 194 92 200 1
3 13 31 28 63 14 31 26 58 25 60 -1 1 5 13 12 27 8 14 15 27 15 30 4 24 18 49
25 45 4 -3 7 3 6 12 -4 25 15 64 27 56 6 -3 7 -1 3 5 -6 11 65 194 85 219 7 7
8 13 5 13 -4 0 -1 10 6 23 6 12 13 27 14 32 5 19 29 80 34 85 3 3 14 31 25 62
10 31 23 54 28 51 6 -3 7 -1 3 5 -4 6 8 46 25 89 17 43 37 90 42 105 6 15 14
25 17 23 3 -2 6 11 6 28 1 17 6 33 13 35 6 2 9 8 6 13 -3 5 0 19 7 31 6 13 13
28 14 33 6 26 57 161 62 165 4 3 8 12 9 20 1 8 42 134 92 279 50 146 89 266
87 268 -1 2 -48 6 -102 8 -54 3 -115 7 -134 10 -19 2 -60 7 -90 11 -30 3 -57
9 -60 13 -3 3 -18 7 -33 7 -53 2 -177 36 -170 47 3 6 1 7 -5 3 -13 -8 -135 27
-209 61 -28 12 -55 23 -58 23 -4 0 -36 14 -72 30 -35 17 -69 30 -74 30 -6 0
-7 5 -3 12 4 6 3 8 -3 5 -11 -7 -63 14 -63 26 0 4 -6 7 -12 7 -7 0 -51 23 -97
50 -46 28 -86 50 -88 50 -2 0 -62 38 -134 85 -80 53 -127 90 -123 97 4 7 3 8
-5 4 -12 -8 -164 98 -154 108 4 3 0 6 -7 6 -11 0 -98 61 -136 95 -6 6 -48 39
-93 74 -44 35 -81 67 -81 72 0 5 -7 9 -15 9 -7 0 -18 6 -22 13 -4 7 -35 34
-68 59 -33 26 -79 64 -102 86 -24 22 -43 38 -43 35 0 -3 -110 87 -130 107 -17
18 -190 157 -265 215 -49 37 -94 73 -100 79 -5 6 -29 24 -52 40 -24 16 -43 33
-43 37 0 5 -4 9 -10 9 -5 0 -59 35 -119 78 -114 79 -228 152 -290 185 -20 11
-43 25 -51 32 -22 18 -243 126 -325 159 -38 15 -83 34 -100 41 -105 48 -439
121 -573 124 -15 1 -21 5 -16 13 4 7 3 8 -5 4 -14 -9 -267 -10 -281 -1 -5 3
-10 2 -10 -4z"/>
<path d="M7755 8360 c-3 -5 -1 -10 4 -10 6 0 11 5 11 10 0 6 -2 10 -4 10 -3 0
-8 -4 -11 -10z"/>
<path d="M7946 8198 c3 -5 10 -6 15 -3 13 9 11 12 -6 12 -8 0 -12 -4 -9 -9z"/>
<path d="M8915 7520 c-3 -5 -1 -10 4 -10 6 0 11 5 11 10 0 6 -2 10 -4 10 -3 0
-8 -4 -11 -10z"/>
<path d="M9279 7353 c-13 -16 -12 -17 4 -4 16 13 21 21 13 21 -2 0 -10 -8 -17
-17z"/>
<path d="M1073 6365 c0 -8 4 -12 9 -9 5 3 6 10 3 15 -9 13 -12 11 -12 -6z"/>
</g>
</svg>
